<?xml version="1.0" encoding="UTF-8"?>
<svg id="Calque_1" data-name="Calque 1" xmlns="http://www.w3.org/2000/svg" viewBox="0 0 223.94 19.99">
  <defs>
    <style>
      .cls-1 {
        fill: #f9f9f9;
      }
    </style>
  </defs>
  <path class="cls-1" d="M18.72,19.81L8.24,5.02l-.88-1.3L9.7.17l14.68,19.64h-5.66Z"/>
  <path class="cls-1" d="M30.11,16.28h0s19.25,0,19.25,0c1.41,0,1.97-.22,1.97-1.16v-2.79c0-.88-.58-1.19-1.97-1.19h-12.95c-5.07,0-7.01-1.9-7.01-4.72v-1.32c0-2.81,1.94-4.72,7.01-4.72l13.01.05h0c2.11,0,5.74,1.56,5.71,3.45h0s-18.73,0-18.73,0c-1.32,0-2,.3-2,1.19v1.38c0,.83.58,1.19,2,1.19h12.95c5.07,0,7.01,1.9,7.01,4.72v2.7c0,2.81-1.94,4.75-7.01,4.75h-15.31c-2.17,0-3.94-1.58-3.94-3.53Z"/>
  <path class="cls-1" d="M68.66,19.81V3.89h-11.16c0-1.94,1.75-3.5,3.91-3.5h23.22c0,1.94-1.75,3.5-3.91,3.5h-7.01v15.92h-5.04Z"/>
  <path class="cls-1" d="M107.31,19.81l-4.83-8.64h-10.33v8.64h-5.01V.38h18.82c5.04,0,6.98,1.9,6.98,4.69v1.41c0,2.32-1.23,4.17-5.1,4.64l4.86,8.69h-5.38ZM107.9,5.02c0-.77-.68-1.13-1.94-1.13h-13.81v3.78h13.81c1.32,0,1.94-.22,1.94-1.16v-1.49Z"/>
  <path class="cls-1" d="M181.79,0h5.57l-14.33,19.43h-3.66L154.91,0h5.69l10.7,14.76"/>
  <path class="cls-1" d="M189.32,19.43V0h5.01v19.43h-5.01Z"/>
  <polyline class="cls-1" points="14.93 13.69 1.08 13.69 0 15.86 16.08 15.86"/>
  <path class="cls-1" d="M136.93,19.92l-10.49-14.79-.88-1.3,2.34-3.55,14.68,19.64h-5.66Z"/>
  <polyline class="cls-1" points="136.99 14.08 118.45 14.08 117 16.25 138.43 16.11"/>
  <path class="cls-1" d="M218.28,19.99l-10.49-14.79-.88-1.3,2.34-3.55,14.68,19.64h-5.66Z"/>
  <polyline class="cls-1" points="214.48 13.86 200.64 13.86 199.56 16.03 215.63 16.03"/>
</svg>